<?xml version="1.0" encoding="UTF-8"?>
<svg xmlns="http://www.w3.org/2000/svg" version="1.1" viewBox="0 0 500 500">
  <defs>
    <style>
      .cls-1 {
        fill: #ed847e;
      }

      .cls-2, .cls-3, .cls-4 {
        fill: #b7915c;
      }

      .cls-2, .cls-5 {
        opacity: .4;
      }

      .cls-3 {
        opacity: .6;
      }

      .cls-6 {
        fill: #ebebeb;
      }

      .cls-7 {
        fill: #407bff;
      }

      .cls-8, .cls-9 {
        fill: #e6e6e6;
      }

      .cls-10 {
        opacity: .5;
      }

      .cls-10, .cls-11, .cls-12 {
        fill: #fff;
      }

      .cls-11 {
        opacity: .9;
      }

      .cls-13, .cls-14 {
        fill: #263238;
      }

      .cls-15 {
        isolation: isolate;
      }

      .cls-9 {
        mix-blend-mode: multiply;
        opacity: .7;
      }

      .cls-16 {
        fill: #fafafa;
      }

      .cls-17 {
        fill: #ffc3bd;
      }

      .cls-18 {
        opacity: .2;
      }

      .cls-19, .cls-20 {
        opacity: .3;
      }

      .cls-21 {
        fill: #f5f5f5;
      }

      .cls-22 {
        fill: #f0f0f0;
      }

      .cls-14 {
        opacity: .8;
      }

      .cls-23, .cls-20 {
        fill: #cc9965;
      }

      .cls-24 {
        display: none;
      }
    </style>
  </defs>
  <!-- Generator: Adobe Illustrator 28.6.0, SVG Export Plug-In . SVG Version: 1.2.0 Build 709)  -->
  <g class="cls-15">
    <g id="Background_Complete">
      <g>
        <g>
          <rect class="cls-6" y="382.4" width="500" height=".25"/>
          <path class="cls-6" d="M237.01,337.8H43.91c-3.15,0-5.71-2.56-5.71-5.71V60.66c0-3.15,2.56-5.71,5.71-5.71h193.1c3.15,0,5.71,2.56,5.71,5.71v271.43c0,3.15-2.56,5.71-5.71,5.71ZM43.91,55.2c-3.01,0-5.46,2.45-5.46,5.46v271.43c0,3.01,2.45,5.46,5.46,5.46h193.1c3.01,0,5.46-2.45,5.46-5.46V60.66c0-3.01-2.45-5.46-5.46-5.46H43.91Z"/>
          <path class="cls-6" d="M453.31,337.8h-193.1c-3.15,0-5.71-2.56-5.71-5.71V60.66c0-3.15,2.56-5.71,5.71-5.71h193.1c3.15,0,5.71,2.56,5.71,5.71v271.43c0,3.15-2.56,5.71-5.71,5.71ZM260.21,55.2c-3.01,0-5.46,2.45-5.46,5.46v271.43c0,3.01,2.45,5.46,5.46,5.46h193.1c3.01,0,5.46-2.45,5.46-5.46V60.66c0-3.01-2.45-5.46-5.46-5.46h-193.1Z"/>
        </g>
        <g>
          <rect class="cls-6" x="51.28" y="391.92" width="26" height=".25"/>
          <rect class="cls-6" x="145.15" y="389.21" width="45.03" height=".25"/>
          <rect class="cls-6" x="78.28" y="401.21" width="60.79" height=".25"/>
          <rect class="cls-6" x="429.49" y="399.53" width="19.23" height=".25"/>
          <rect class="cls-6" x="365.29" y="399.53" width="55.29" height=".25"/>
          <rect class="cls-6" x="257.05" y="395.31" width="74.47" height=".25"/>
        </g>
      </g>
      <g>
        <g>
          <g>
            <rect class="cls-22" x="222.82" y="274.51" width="42.05" height="107.89"/>
            <rect class="cls-21" x="72.35" y="274.51" width="150.46" height="107.89" transform="translate(295.17 656.91) rotate(180)"/>
            <rect class="cls-12" x="81.57" y="349.92" width="25.11" height="21.97" transform="translate(188.26 721.81) rotate(180)"/>
            <rect class="cls-6" x="81.57" y="319.89" width="25.11" height="21.97" transform="translate(188.26 661.75) rotate(180)"/>
            <rect class="cls-9" x="71.91" y="288.44" width="192.95" height="4.33"/>
          </g>
          <g>
            <rect class="cls-22" x="222.82" y="272.42" width="44.37" height="17.47"/>
            <rect class="cls-21" x="70.03" y="272.42" width="152.79" height="17.47" transform="translate(292.84 562.31) rotate(180)"/>
          </g>
        </g>
        <g>
          <g>
            <rect class="cls-22" x="216.25" y="239.44" width="32.68" height="33.25"/>
            <rect class="cls-21" x="102.46" y="239.44" width="113.79" height="33.25" transform="translate(318.7 512.12) rotate(180)"/>
            <rect class="cls-9" x="102.12" y="244.45" width="146.81" height="2.69"/>
          </g>
          <g>
            <rect class="cls-22" x="216.25" y="237.81" width="34.48" height="7.77"/>
            <rect class="cls-21" x="100.65" y="237.81" width="115.59" height="7.77" transform="translate(316.9 483.39) rotate(180)"/>
          </g>
        </g>
        <g>
          <rect class="cls-8" x="287.41" y="220.52" width="31.99" height="161.88" transform="translate(606.81 602.92) rotate(180)"/>
          <polygon class="cls-22" points="294.26 382.4 287.41 382.4 287.41 370.92 301.44 370.92 294.26 382.4"/>
          <rect class="cls-8" x="394.12" y="220.52" width="31.99" height="161.88" transform="translate(820.24 602.92) rotate(180)"/>
          <rect class="cls-22" x="287.41" y="220.52" width="112.69" height="159.56" transform="translate(687.51 600.6) rotate(180)"/>
          <rect class="cls-8" x="292.72" y="227.59" width="102.06" height="43.76" transform="translate(687.51 498.95) rotate(180)"/>
          <path class="cls-16" d="M350.46,248.54c0,3.7-3,6.71-6.71,6.71s-6.71-3-6.71-6.71,3-6.71,6.71-6.71,6.71,3,6.71,6.71Z"/>
          <polygon class="cls-22" points="393.25 382.4 400.1 382.4 400.1 370.92 386.07 370.92 393.25 382.4"/>
          <rect class="cls-8" x="292.72" y="278.42" width="102.06" height="94.59"/>
          <circle class="cls-16" cx="380.69" cy="292.52" r="6.71"/>
        </g>
        <g>
          <g>
            <rect class="cls-8" x="185.24" y="-27.51" width="130.98" height="329.04" transform="translate(387.74 -113.71) rotate(90)"/>
            <rect class="cls-22" x="183.78" y="-27.51" width="130.98" height="329.04" transform="translate(386.29 -112.26) rotate(90)"/>
            <rect class="cls-12" x="93.13" y="79.9" width="312.3" height="114.23"/>
          </g>
          <polygon class="cls-8" points="129.54 127.5 118.56 146.53 140.53 146.53 129.54 127.5"/>
          <rect class="cls-8" x="168.61" y="128.04" width="17.94" height="17.94"/>
          <polygon class="cls-8" points="225.62 125.54 213.55 134.3 218.16 148.49 233.07 148.49 237.68 134.3 225.62 125.54"/>
          <polygon class="cls-8" points="279.99 126.02 267.31 126.02 260.96 137.01 267.31 148 279.99 148 286.34 137.01 279.99 126.02"/>
          <polygon class="cls-8" points="321.69 124.95 311.77 129.73 309.32 140.47 316.18 149.07 327.19 149.07 334.06 140.47 331.61 129.73 321.69 124.95"/>
          <polygon class="cls-8" points="374.58 125.29 364.87 125.29 358 132.16 358 141.87 364.87 148.74 374.58 148.74 381.44 141.87 381.44 132.16 374.58 125.29"/>
        </g>
      </g>
    </g>
    <g id="Background_Simple" class="cls-24">
      <g>
        <path class="cls-7" d="M243.6,327.37c-84.44-12.36-179.84-51.57-169.8-147.7,9.11-87.22,107.52-131.67,185.06-78.39,33.45,22.98,39.59,63.31,77.5,81.69,37.9,18.37,93.03,19.88,93.19,75.25.25,85.75-130.39,77.29-185.96,69.15Z"/>
        <path class="cls-11" d="M243.6,327.37c-84.44-12.36-179.84-51.57-169.8-147.7,9.11-87.22,107.52-131.67,185.06-78.39,33.45,22.98,39.59,63.31,77.5,81.69,37.9,18.37,93.03,19.88,93.19,75.25.25,85.75-130.39,77.29-185.96,69.15Z"/>
      </g>
    </g>
    <g id="To_Do_List">
      <g>
        <g>
          <path class="cls-7" d="M239.41,129.51h164.65c3.51,0,6.21,2.87,5.99,6.39l-13.42,216.33c-.22,3.51-3.27,6.39-6.78,6.39h-164.65c-3.51,0-6.21-2.87-5.99-6.39l13.42-216.33c.22-3.51,3.27-6.39,6.78-6.39Z"/>
          <path class="cls-2" d="M239.41,129.51h164.65c3.51,0,6.21,2.87,5.99,6.39l-13.42,216.33c-.22,3.51-3.27,6.39-6.78,6.39h-164.65c-3.51,0-6.21-2.87-5.99-6.39l13.42-216.33c.22-3.51,3.27-6.39,6.78-6.39Z"/>
        </g>
        <path class="cls-4" d="M235.63,129.51h164.65c3.51,0,6.21,2.87,5.99,6.39l-13.42,216.33c-.22,3.51-3.27,6.39-6.78,6.39h-164.65c-3.51,0-6.21-2.87-5.99-6.39l13.42-216.33c.22-3.51,3.27-6.39,6.78-6.39Z"/>
        <polygon class="cls-5" points="224.34 346.93 384.61 348.85 397.61 139.33 237.23 139.33 224.34 346.93"/>
        <path class="cls-12" d="M219.66,344.81h162.3c8.94-81.91,11.69-126.12,12.91-208.03h-162.3c-1.22,81.91-3.96,126.12-12.91,208.03Z"/>
        <g>
          <path class="cls-20" d="M375.49,193.75h-27.95c-.57,0-1.11-.24-1.5-.65-.39-.42-.59-.97-.56-1.54l1.73-27.94c.07-1.09.97-1.94,2.06-1.94h27.95c.57,0,1.11.24,1.5.65.39.42.59.97.56,1.54l-1.73,27.94c-.07,1.09-.97,1.94-2.06,1.94ZM349.74,189.63h23.81l1.48-23.82h-23.81l-1.48,23.82Z"/>
          <path class="cls-20" d="M372.84,236.32h-27.94c-.57,0-1.11-.24-1.5-.65-.39-.42-.59-.97-.56-1.54l1.73-27.95c.07-1.09.97-1.94,2.06-1.94h27.95c.57,0,1.11.24,1.5.65.39.42.59.97.56,1.54l-1.73,27.95c-.07,1.09-.97,1.94-2.06,1.94ZM347.09,232.19h23.81l1.48-23.82h-23.81l-1.48,23.82Z"/>
          <path class="cls-20" d="M370.2,278.88h-27.95c-.57,0-1.11-.24-1.5-.65-.39-.42-.59-.97-.56-1.54l1.73-27.95c.07-1.09.97-1.94,2.06-1.94h27.94c.57,0,1.11.24,1.5.65.39.41.59.97.56,1.54l-1.73,27.95c-.07,1.09-.97,1.94-2.06,1.94ZM344.45,274.76h23.81l1.48-23.82h-23.81l-1.48,23.82Z"/>
          <path class="cls-20" d="M367.56,321.45h-27.94c-.57,0-1.11-.24-1.5-.65-.39-.42-.59-.97-.56-1.54l1.73-27.95c.07-1.09.97-1.94,2.06-1.94h27.95c.57,0,1.11.24,1.5.65.39.42.59.97.56,1.54l-1.73,27.95c-.07,1.09-.97,1.94-2.06,1.94ZM341.81,317.32h23.81l1.48-23.82h-23.81l-1.48,23.82Z"/>
          <path class="cls-20" d="M259.88,174.06h63.29c1.92,0,3.59-1.57,3.71-3.49h0c.12-1.92-1.36-3.49-3.28-3.49h-63.29c-1.92,0-3.59,1.57-3.71,3.49h0c-.12,1.92,1.36,3.49,3.28,3.49Z"/>
          <path class="cls-20" d="M271.03,188.36h51.25c1.92,0,3.59-1.57,3.71-3.49h0c.12-1.92-1.36-3.49-3.28-3.49h-51.25c-1.92,0-3.59,1.57-3.71,3.49h0c-.12,1.92,1.36,3.49,3.28,3.49Z"/>
          <path class="cls-20" d="M256.79,223.94h63.29c1.92,0,3.4,1.57,3.28,3.49h0c-.12,1.92-1.79,3.49-3.71,3.49h-63.29c-1.92,0-3.4-1.57-3.28-3.49h0c.12-1.92,1.79-3.49,3.71-3.49Z"/>
          <path class="cls-20" d="M269.71,209.64h51.25c1.92,0,3.4,1.57,3.28,3.49h0c-.12,1.92-1.79,3.49-3.71,3.49h-51.25c-1.92,0-3.4-1.57-3.28-3.49h0c.12-1.92,1.79-3.49,3.71-3.49Z"/>
          <path class="cls-20" d="M254.6,259.19h63.29c1.92,0,3.59-1.57,3.71-3.49h0c.12-1.92-1.36-3.49-3.28-3.49h-63.29c-1.92,0-3.59,1.57-3.71,3.49h0c-.12,1.92,1.36,3.49,3.28,3.49Z"/>
          <path class="cls-20" d="M291.54,273.49h25.46c1.92,0,3.59-1.57,3.71-3.49h0c.12-1.92-1.36-3.49-3.28-3.49h-25.46c-1.92,0-3.59,1.57-3.71,3.49h0c-.12,1.92,1.36,3.49,3.28,3.49Z"/>
          <path class="cls-20" d="M265.75,273.49h13.43c1.92,0,3.59-1.57,3.71-3.49h0c.12-1.92-1.36-3.49-3.28-3.49h-13.43c-1.92,0-3.59,1.57-3.71,3.49h0c-.12,1.92,1.36,3.49,3.28,3.49Z"/>
          <path class="cls-20" d="M251.96,301.76h63.29c1.92,0,3.59-1.57,3.71-3.49h0c.12-1.92-1.36-3.49-3.28-3.49h-63.29c-1.92,0-3.59,1.57-3.71,3.49h0c-.12,1.92,1.36,3.49,3.28,3.49Z"/>
          <path class="cls-20" d="M263.11,316.06h51.25c1.92,0,3.59-1.57,3.71-3.49h0c.12-1.92-1.36-3.49-3.28-3.49h-51.25c-1.92,0-3.59,1.57-3.71,3.49h0c-.12,1.92,1.36,3.49,3.28,3.49Z"/>
          <path class="cls-23" d="M360.11,186.1c-.4,0-.81-.12-1.16-.36l-10.77-7.36c-.94-.64-1.18-1.93-.54-2.87.64-.94,1.92-1.18,2.87-.54l9.2,6.28c3.36-4.05,12.94-15.04,20.91-18.59,1.04-.46,2.26,0,2.72,1.04.46,1.04,0,2.26-1.04,2.72-8.7,3.88-20.45,18.72-20.56,18.87-.41.52-1.01.79-1.62.79Z"/>
          <path class="cls-23" d="M355.1,227.84c-.52,0-1.03-.19-1.43-.58l-9.37-9.04c-.82-.79-.84-2.1-.05-2.92.79-.82,2.1-.84,2.92-.05l7.98,7.69c3.95-3.53,15.02-12.93,23.36-15.22,1.1-.3,2.23.35,2.53,1.45.3,1.1-.35,2.23-1.45,2.53-9.12,2.49-22.93,15.44-23.07,15.57-.4.37-.91.56-1.41.56Z"/>
        </g>
        <path class="cls-5" d="M337.57,141.73l3.04.03c3.37.03,6.15-2.7,6.17-6.06l.04-5.58c0-.35-.27-.62-.61-.62h-8.48c-.38,0-.69.32-.7.69l-.08,10.92c0,.34.26.61.61.62Z"/>
        <g>
          <g>
            <path class="cls-7" d="M291.55,119.39h51.06c3.17,0,5.41,2.59,4.98,5.76l-1.54,11.38c-.43,3.17-3.37,5.76-6.54,5.76h-51.06c-3.17,0-5.41-2.59-4.98-5.76l1.54-11.38c.43-3.17,3.37-5.76,6.54-5.76Z"/>
            <path class="cls-3" d="M291.55,119.39h51.06c3.17,0,5.41,2.59,4.98,5.76l-1.54,11.38c-.43,3.17-3.37,5.76-6.54,5.76h-51.06c-3.17,0-5.41-2.59-4.98-5.76l1.54-11.38c.43-3.17,3.37-5.76,6.54-5.76Z"/>
          </g>
          <path class="cls-10" d="M341.29,124.89h-22.95c-.85,0-1.55-.69-1.55-1.55s.69-1.55,1.55-1.55h22.95c.85,0,1.55.69,1.55,1.55s-.69,1.55-1.55,1.55Z"/>
          <path class="cls-10" d="M310.64,124.89h-2.42c-.85,0-1.55-.69-1.55-1.55s.69-1.55,1.55-1.55h2.42c.85,0,1.55.69,1.55,1.55s-.69,1.55-1.55,1.55Z"/>
        </g>
      </g>
    </g>
    <g id="Character">
      <g>
        <g>
          <polygon points="169.46 346.65 179.33 348.54 202.66 238.82 188.17 236.05 169.46 346.65"/>
          <polygon class="cls-13" points="204.15 162.64 215.97 158.75 216.79 154.46 205.78 154.12 204.15 162.64"/>
          <polygon points="203.85 160.14 217.31 155.76 203.48 234.52 188.99 231.76 203.85 160.14"/>
          <rect class="cls-13" x="189.05" y="233.1" width="13.55" height="4.37" transform="translate(344.08 503.11) rotate(-169.2)"/>
          <path class="cls-7" d="M171.24,359.64c-.12.65.15,1.25.61,1.34.46.09.93-.37,1.06-1.02.12-.65-.15-1.25-.61-1.34-.46-.09-.93.37-1.06,1.02Z"/>
          <polygon class="cls-13" points="170.56 359.72 173.5 360.28 179.33 348.54 169.46 346.65 170.56 359.72"/>
          <path class="cls-13" d="M188.34,211.82c-.18,0-.36-.04-.52-.12-.62-.29-.89-1.03-.6-1.65,6.2-13.28,11.23-41.04,11.9-47.64.2-1.95,1.44-3.64,3.24-4.42l3.27-1.41c.63-.27,1.36.02,1.64.65.27.63-.02,1.36-.65,1.64l-3.27,1.41c-.97.42-1.64,1.33-1.75,2.38-.71,6.93-5.71,34.68-12.12,48.44-.21.45-.66.72-1.13.72Z"/>
        </g>
        <g>
          <path class="cls-17" d="M142.27,158.79c-2.49,4.27-5.01,8.79-7.37,13.24-1.17,2.24-2.31,4.49-3.41,6.74-1.05,2.26-2.1,4.52-3,6.78l-.17.41s-.02-.02-.02.01c-.02.02-.05.1-.07.21-.05.22-.07.57-.07.98.01.83.18,1.87.42,2.94.52,2.15,1.28,4.47,2.2,6.76.89,2.31,1.91,4.62,2.97,6.93,1.03,2.32,2.19,4.65,3.29,6.9l-4.75,3.24c-3.54-4.15-6.66-8.47-9.42-13.27-1.34-2.42-2.65-4.91-3.64-7.76-.5-1.44-.95-2.95-1.2-4.72-.13-.89-.19-1.85-.12-2.93.04-.54.1-1.11.24-1.72.06-.29.16-.62.24-.93l.16-.51c1.64-5.33,3.74-10.34,6.06-15.21,2.35-4.88,4.86-9.52,7.78-14.18l9.87,6.11Z"/>
          <path class="cls-17" d="M136.35,209.25l4.47,3.48-6.82,5.64s-3.12-3.01-2.63-6.69l4.99-2.42Z"/>
          <polygon class="cls-17" points="142.64 217.81 138.09 223.66 133.99 218.37 140.82 212.73 142.64 217.81"/>
          <path class="cls-13" d="M168.04,117.11c.12.61.54,1.03.94.95.4-.08.62-.64.49-1.24-.12-.61-.54-1.03-.94-.95-.4.08-.62.64-.49,1.24Z"/>
          <path class="cls-1" d="M168.53,118.15s2.09,3.21,3.94,4.59c-.87,1.22-2.78,1.13-2.78,1.13l-1.16-5.72Z"/>
          <path class="cls-13" d="M165.14,114.2c-.09,0-.18-.03-.25-.1-.15-.14-.16-.37-.02-.51,1.36-1.47,3.02-1.21,3.09-1.2.2.03.33.22.3.42-.03.2-.22.33-.42.3h0c-.05,0-1.35-.2-2.43.98-.07.08-.17.12-.27.12Z"/>
          <path class="cls-17" d="M150.79,125.62c1.1,5.6,2.2,15.87-1.73,19.61,0,0,1.53,5.68,11.94,5.68,11.45,0,5.47-5.68,5.47-5.68-6.25-1.49-6.09-6.13-5-10.48l-10.69-9.13Z"/>
          <path class="cls-13" d="M146.85,145.66c-.83-1.98.95-7.98,2.85-8.56,2.09-.65,10.03-.29,13.97,1.36,2.8,2.84,3.61,8.74,3.61,8.74l-20.43-1.54Z"/>
          <path class="cls-4" d="M114.15,407.52c.77.17,1.54.21,1.91-.1.16-.13.31-.39.18-.84-.07-.24-.23-.42-.47-.53-1.03-.49-3.41.47-3.51.52-.07.03-.11.09-.11.16,0,.07.04.14.1.17.36.18,1.13.47,1.91.63ZM115.39,406.3c.08.02.15.04.21.07.14.07.23.17.28.31.1.33-.02.43-.06.46-.41.35-1.94.03-3.02-.4.73-.26,1.91-.59,2.59-.44Z"/>
          <path class="cls-4" d="M112.28,406.91s.06,0,.09,0c.87-.25,2.72-1.57,2.74-2.44,0-.16-.05-.44-.46-.59-.27-.09-.54-.07-.8.06-1.02.52-1.67,2.64-1.7,2.73-.02.06,0,.13.04.18.03.03.06.04.09.05ZM114.45,404.2s.05.01.08.02c.22.08.22.19.22.24-.01.51-1.24,1.55-2.13,1.96.22-.61.74-1.82,1.39-2.15.15-.08.29-.1.44-.07Z"/>
          <path class="cls-4" d="M169.44,408.81c.98,0,1.93-.14,2.25-.58.11-.15.2-.42-.02-.79-.12-.21-.31-.35-.57-.42-1.27-.35-3.95,1.18-4.07,1.24-.07.04-.1.11-.09.19.01.07.07.13.14.15.49.1,1.43.22,2.35.22ZM170.66,407.32c.13,0,.25.01.35.04.17.05.28.13.36.25.13.23.08.34.04.4-.36.5-2.29.51-3.72.31.71-.36,2.08-1,2.98-1Z"/>
          <path class="cls-4" d="M167.13,408.6s.05,0,.07-.02c.92-.41,2.76-2.07,2.62-2.94-.03-.2-.18-.46-.68-.51-.37-.04-.71.07-1.01.31-.97.8-1.18,2.86-1.19,2.95,0,.06.02.13.07.16.03.02.07.03.11.03ZM169,405.49s.07,0,.11,0c.33.03.35.16.35.2.08.52-1.16,1.82-2.1,2.39.1-.6.37-1.84,1.01-2.36.19-.16.4-.24.63-.24Z"/>
          <polygon class="cls-17" points="158.71 408.42 166.37 408.42 167.13 390.68 159.47 390.68 158.71 408.42"/>
          <polygon class="cls-17" points="103.43 404.87 111.12 406.49 116.55 389.97 108.85 388.35 103.43 404.87"/>
          <path class="cls-13" d="M111.95,405.74l-8.41-1.82c-.31-.07-.62.09-.75.37l-2.92,6.33c-.3.66.1,1.43.81,1.57,2.95.59,4.41.72,8.11,1.52,2.28.49,7.41,1.74,10.55,2.42,3.07.67,4.23-2.34,3-2.9-5.5-2.51-7.79-4.72-9.28-6.78-.27-.37-.67-.63-1.12-.72Z"/>
          <path class="cls-13" d="M166.32,407.53h-8.37c-.31,0-.58.22-.65.52l-1.51,6.81c-.16.71.38,1.37,1.1,1.36,3.02-.05,7.38-.23,11.17-.23,4.43,0,2.71.24,7.91.24,3.14,0,4.02-3.18,2.7-3.47-5.99-1.31-5.33-1.45-10.51-4.64-.56-.35-1.18-.6-1.85-.6Z"/>
          <path class="cls-13" d="M135.35,146.97c-7.18,1.65-13.1,19.97-13.1,19.97l14.42,10.99s5.29-4.99,7.65-14.16c2.47-9.61-1.62-18.49-8.96-16.81Z"/>
          <path class="cls-18" d="M141.51,160.45c-3.9,3.86-5.17,10.89-5.47,17l.64.49s5.3-4.99,7.65-14.16c.15-.57.27-1.15.38-1.71l-3.19-1.62Z"/>
          <path class="cls-13" d="M178.27,147.36s8.15,9.21.45,66.21h-40.97c-.28-6.29,3.67-36.97-2.4-66.6,0,0,7.02-1.41,13.72-1.73,5.24-.25,12.81-.42,17.42,0,6.07.55,11.78,2.13,11.78,2.13Z"/>
          <g>
            <polygon class="cls-18" points="167.13 390.68 166.74 399.83 159.07 399.83 159.46 390.68 167.13 390.68"/>
            <polygon class="cls-18" points="108.85 388.35 116.55 389.97 113.74 398.49 106.05 396.87 108.85 388.35"/>
          </g>
          <path class="cls-17" d="M147.59,119.93c1.97,7.34,2.75,11.74,7.28,14.79,6.82,4.59,15.3-.68,15.57-8.46.24-7.01-3.02-17.84-10.9-19.32-7.76-1.46-13.91,5.64-11.95,12.98Z"/>
          <g>
            <path class="cls-17" d="M154.91,133.87s-.07,0-.1,0c-2.4,0-4.66-1.13-6.07-3.09-2.3-3.21-5.53-8.77-5.9-15.2,2.92-3.08,13.89-5.11,18.78-4,4.07.93,3.48,12.52-.37,18.78-1.35,2.19-3.77,3.5-6.34,3.51Z"/>
            <path class="cls-14" d="M154.91,133.87s-.07,0-.1,0c-2.4,0-4.66-1.13-6.07-3.09-2.3-3.21-5.53-8.77-5.9-15.2,2.92-3.08,13.89-5.11,18.78-4,4.07.93,3.48,12.52-.37,18.78-1.35,2.19-3.77,3.5-6.34,3.51Z"/>
          </g>
          <path class="cls-13" d="M147.29,118.19c-3.45-.25-5.4-2.42-6.03-4.28-.87-2.6.06-8.08,5.28-8.25,5.22-.17,5.78-3.14,4.17-3.75,3.42.25,2.33,2.64,2.33,2.64.92.06,1.78-2.44,6.97-2.25,5.19.19,7.78-.92,7.11-2.08,2.47.5,1.78,3.5-.31,4.31,0,0,4.94,3.75,6.11,1.69.83,1.5-.81,3.29-7.06,2.48,2.49,3.48-3.41,2.7-5.92,4.29-2.51,1.58-9.21,5.45-12.66,5.21Z"/>
          <path class="cls-17" d="M160.08,119.59c.5,1.93,1.77,3.58,3.09,4.57,1.99,1.48,3.48.02,3.34-2.23-.13-2.03-1.32-5.25-3.52-5.85-2.17-.59-3.49,1.31-2.91,3.51Z"/>
          <path class="cls-13" d="M164.19,213.57s-8.69,58.54-13.47,80.47c-5.23,24.02-33.25,103.47-33.25,103.47l-13.71-2.97s19.6-64.75,23.98-98.33c3.37-25.79,10.01-82.65,10.01-82.65h26.44Z"/>
          <path class="cls-4" d="M120.76,392.94c.06.01-2.56,4.96-2.56,4.96l-15.43-3.34,1.3-4.64,16.68,3.02Z"/>
          <path class="cls-19" d="M158.69,234.43c-10.05,1.97-8.99,39.46-7.78,58.74,2.9-13.63,7.14-39.85,10.04-58.46-.67-.33-1.42-.44-2.26-.27Z"/>
          <path class="cls-13" d="M178.72,213.57s1.05,57.27.22,80.63c-.87,24.3-9.35,103.85-9.35,103.85h-12.98s-.48-78.14-1.05-102c-.63-26.01-3.77-82.49-3.77-82.49h26.93Z"/>
          <path class="cls-4" d="M172.09,392.89c.06,0-.73,5.39-.73,5.39h-15.78l-.43-4.81,16.94-.58Z"/>
          <path class="cls-4" d="M178.46,146.35c2.01.84,3.94,2.33,4.52,7.27.56,4.75-.52,46.38-1.83,59.68-.09.92-.76,1.78-1.69,1.82-8.19.36-33.56-3.07-42.13-1.57-.98.17-1.86-.92-1.81-1.92.67-12.95-.3-33.85-1.88-47.13-1.03-8.67-1.04-17.73,6.24-19.28,5.38-1.14,30.75-2.14,38.57,1.12Z"/>
          <path class="cls-17" d="M181.63,157.85c.46,2.2.95,4.59,1.5,6.87.56,2.3,1.12,4.59,1.76,6.84.62,2.25,1.3,4.46,2.07,6.57.75,2.1,1.6,4.15,2.55,5.79.46.81.95,1.54,1.34,1.96.19.21.34.34.37.39,0,.01-.01.09.2.15.35.15,1.13.28,2.03.25.9-.03,1.91-.14,2.96-.32,4.21-.77,8.86-2.32,13.26-3.9l2.91,4.96c-4.16,3.23-8.47,5.9-13.73,7.84-1.32.48-2.72.89-4.26,1.15-1.55.25-3.26.43-5.31.08-1-.16-2.17-.54-3.25-1.1-1.03-.57-1.85-1.21-2.55-1.84-1.39-1.29-2.35-2.57-3.21-3.83-3.22-5.04-4.92-9.93-6.51-14.87-.75-2.47-1.44-4.94-2.02-7.42-.58-2.51-1.12-4.92-1.55-7.56l11.44-2.01Z"/>
          <path class="cls-13" d="M164.78,154.85c-6.22,12.51,8.56,26.65,8.56,26.65l16.48-8.61s-1.74-10.68-5.63-19.32c-4.8-10.67-15.83-5.92-19.41,1.27Z"/>
          <path class="cls-17" d="M208.14,183.2l5.59-3.67,2.32,8.36s-2.51,2.93-7.08-.26l-.83-4.42Z"/>
          <path class="cls-17" d="M218.6,182.9l-.18,1.75c-.09.85-.5,1.63-1.14,2.18l-1.22,1.05-2.32-8.36.72-.19c2.25-.58,4.39,1.25,4.15,3.57Z"/>
        </g>
      </g>
    </g>
  </g>
</svg>