<?xml version="1.0" encoding="UTF-8"?>
<svg xmlns="http://www.w3.org/2000/svg" version="1.1" viewBox="0 0 500 500">
  <defs>
    <style>
      .cls-1 {
        fill: #b78876;
      }

      .cls-2 {
        fill: #aa6550;
      }

      .cls-3 {
        fill: #ebebeb;
      }

      .cls-4 {
        fill: #ff725e;
      }

      .cls-5 {
        fill: #263238;
      }

      .cls-6 {
        fill: #bc955c;
      }

      .cls-7 {
        fill: #fff;
      }

      .cls-8 {
        fill: #fafafa;
      }

      .cls-9 {
        opacity: .6;
      }

      .cls-10 {
        opacity: .3;
      }

      .cls-11 {
        fill: #f5f5f5;
      }

      .cls-12 {
        fill: #455a64;
      }

      .cls-13 {
        display: none;
      }

      .cls-14 {
        fill: #e0e0e0;
      }
    </style>
  </defs>
  <!-- Generator: Adobe Illustrator 28.6.0, SVG Export Plug-In . SVG Version: 1.2.0 Build 709)  -->
  <g>
    <g id="Background_Simple" class="cls-13">
      <path class="cls-11" d="M437.85,94.6l-2.43-4.01c-20.52-33.81-57.61-54.19-96.72-51.72-5.03.32-10.03,1-14.97,2.06-35.56,7.61-66.5,34.5-79.32,68.94-7.54,20.25-9.65,43.57-23.96,59.65-18.63,20.92-50.25,21.58-78.06,20.71s-59.45-.13-77.99,20.88c-11.61,13.15-15.3,31.86-14.36,49.48,2.48,46.64,34.98,88.35,76.31,109.07,41.33,20.73,90,22.59,135.23,13.47,63.37-12.77,123.63-47.85,159.86-102.04,36.22-54.18,45.39-128,16.41-186.48Z"/>
      <circle class="cls-11" cx="382.68" cy="398.09" r="27.09" transform="translate(-74.71 707.47) rotate(-80.21)"/>
    </g>
    <g id="Screen">
      <g>
        <rect class="cls-14" x="54.68" y="65.6" width="390.85" height="25.04"/>
        <rect class="cls-7" x="54.62" y="113.64" width="390.85" height="219.2"/>
        <polygon class="cls-3" points="54.68 90.46 108.35 90.46 113.66 74.97 200.66 74.97 205.97 90.46 445.53 90.46 445.53 114.17 54.68 114.17 54.68 90.46"/>
        <path class="cls-5" d="M67.58,75.59c0,1.62-1.32,2.94-2.94,2.94s-2.94-1.32-2.94-2.94,1.32-2.94,2.94-2.94,2.94,1.32,2.94,2.94Z"/>
        <path class="cls-5" d="M76.67,75.59c0,1.62-1.32,2.94-2.94,2.94s-2.94-1.32-2.94-2.94,1.32-2.94,2.94-2.94,2.94,1.32,2.94,2.94Z"/>
        <path class="cls-5" d="M85.76,75.59c0,1.62-1.32,2.94-2.94,2.94s-2.94-1.32-2.94-2.94,1.32-2.94,2.94-2.94,2.94,1.32,2.94,2.94Z"/>
        <path class="cls-8" d="M402.33,109.45H134.18c-4.11,0-7.44-3.33-7.44-7.44h0c0-4.11,3.33-7.44,7.44-7.44h268.15c4.11,0,7.44,3.33,7.44,7.44h0c0,4.11-3.33,7.44-7.44,7.44Z"/>
        <g>
          <path class="cls-14" d="M140.6,103v2.51h-1.27v-2.32c0-.71-.33-1.04-.89-1.04-.61,0-1.05.38-1.05,1.18v2.17h-1.27v-6.06h1.27v2.12c.34-.34.83-.52,1.4-.52,1.04,0,1.82.6,1.82,1.94Z"/>
          <path class="cls-14" d="M144.58,105.3c-.26.19-.64.28-1.04.28-1.04,0-1.64-.53-1.64-1.58v-1.8h-.68v-.98h.68v-1.07h1.27v1.07h1.09v.98h-1.09v1.79c0,.38.2.58.55.58.19,0,.38-.06.51-.16l.34.9Z"/>
          <path class="cls-14" d="M148.04,105.3c-.26.19-.64.28-1.04.28-1.04,0-1.64-.53-1.64-1.58v-1.8h-.68v-.98h.68v-1.07h1.27v1.07h1.09v.98h-1.09v1.79c0,.38.2.58.55.58.19,0,.38-.06.51-.16l.34.9Z"/>
          <path class="cls-14" d="M153.54,103.32c0,1.38-.95,2.26-2.19,2.26-.55,0-1-.17-1.32-.53v2.05h-1.27v-5.98h1.22v.51c.32-.38.79-.57,1.38-.57,1.23,0,2.19.88,2.19,2.26ZM152.25,103.32c0-.76-.48-1.22-1.12-1.22s-1.12.46-1.12,1.22.48,1.22,1.12,1.22,1.12-.46,1.12-1.22Z"/>
          <path class="cls-14" d="M154.08,101.85c0-.47.35-.78.79-.78s.79.31.79.78-.35.8-.79.8-.79-.33-.79-.8ZM154.08,104.78c0-.47.35-.78.79-.78s.79.31.79.78-.35.8-.79.8-.79-.34-.79-.8Z"/>
          <path class="cls-14" d="M158.8,98.64h1.13l-2.69,7.69h-1.13l2.69-7.69Z"/>
          <path class="cls-14" d="M161.41,98.64h1.13l-2.69,7.69h-1.13l2.69-7.69Z"/>
        </g>
        <g>
          <path class="cls-8" d="M402.09,153.06h-233.63c-7.28,0-13.19-5.91-13.19-13.19h0c0-7.28,5.91-13.19,13.19-13.19h233.63c7.28,0,13.19,5.91,13.19,13.19h0c0,7.29-5.91,13.19-13.19,13.19Z"/>
          <path class="cls-5" d="M402.09,153.06c-.03-.11,2.02.24,5.4-1.22,1.64-.77,3.6-2.04,5.16-4.22.78-1.08,1.48-2.35,1.94-3.81.45-1.46.67-3.11.55-4.83-.12-1.72-.59-3.52-1.48-5.21-.89-1.7-2.24-3.25-3.93-4.49-1.69-1.25-3.79-2.07-6.04-2.36-1.13-.13-2.3-.1-3.49-.1-1.19,0-2.41,0-3.64,0-9.89.01-21.14.02-33.59.04-49.78.02-118.54.05-194.48.08-2.32.04-4.65.61-6.63,1.83-2,1.17-3.62,2.92-4.75,4.92-2.21,4.04-2.07,9.24.42,13.06,1.19,1.93,2.93,3.49,4.9,4.56,2,1.04,4.23,1.56,6.49,1.5,4.55,0,9.07,0,13.55,0,17.91,0,35.18.01,51.64.02,32.91.02,62.54.04,87.43.06,24.88.03,45.02.06,58.94.08,6.95.02,12.35.04,16.03.05,1.83.01,3.22.02,4.17.03.94,0,1.42.03,1.42.03,0,0-.48.02-1.42.03-.95,0-2.34.01-4.17.03-3.67.01-9.07.03-16.03.05-13.93.02-34.06.05-58.94.08-24.89.02-54.52.03-87.43.06-16.46,0-33.73,0-51.64.02-4.48,0-8.99,0-13.55,0-2.31.07-4.66-.48-6.73-1.56-2.05-1.11-3.87-2.73-5.1-4.74-2.59-3.97-2.74-9.37-.44-13.58,1.17-2.08,2.86-3.9,4.94-5.11,2.05-1.27,4.48-1.87,6.89-1.91,75.94.03,144.7.06,194.48.08,12.44.01,23.7.03,33.59.04,1.24,0,2.45,0,3.64,0,1.19,0,2.37-.02,3.52.11,2.3.3,4.44,1.14,6.15,2.42,1.72,1.26,3.09,2.85,3.99,4.58.9,1.73,1.37,3.56,1.49,5.31.12,1.75-.11,3.42-.58,4.9-.47,1.48-1.19,2.77-1.98,3.85-1.59,2.19-3.59,3.46-5.24,4.22-1.69.75-3.09.95-4.02,1.07-.94.05-1.42.05-1.42.05Z"/>
        </g>
        <g>
          <path class="cls-14" d="M173.82,142.68l.5-1.11c.53.39,1.33.66,2.09.66.87,0,1.22-.29,1.22-.68,0-1.19-3.69-.37-3.69-2.73,0-1.08.87-1.98,2.67-1.98.8,0,1.61.19,2.2.56l-.45,1.12c-.59-.34-1.2-.5-1.76-.5-.87,0-1.21.33-1.21.73,0,1.17,3.69.36,3.69,2.69,0,1.06-.88,1.97-2.69,1.97-1.01,0-2.02-.3-2.58-.73Z"/>
          <path class="cls-14" d="M184.75,141.27h-3.69c.14.61.65.98,1.4.98.52,0,.89-.15,1.22-.47l.75.82c-.45.52-1.13.79-2.01.79-1.69,0-2.78-1.06-2.78-2.51s1.11-2.51,2.6-2.51,2.54.96,2.54,2.53c0,.11-.02.26-.03.38ZM181.04,140.44h2.4c-.1-.62-.56-1.02-1.2-1.02s-1.11.39-1.21,1.02Z"/>
          <path class="cls-14" d="M189.9,140.52v2.78h-1.32v-.61c-.26.44-.77.68-1.49.68-1.14,0-1.82-.63-1.82-1.48s.61-1.46,2.09-1.46h1.12c0-.61-.36-.96-1.12-.96-.52,0-1.05.17-1.4.45l-.51-.99c.53-.38,1.32-.59,2.1-.59,1.49,0,2.35.69,2.35,2.17ZM188.49,141.77v-.5h-.97c-.66,0-.87.25-.87.57,0,.35.3.59.8.59.47,0,.88-.22,1.04-.66Z"/>
          <path class="cls-14" d="M194.21,138.36v1.31c-.12,0-.21-.02-.32-.02-.78,0-1.3.43-1.3,1.36v2.3h-1.41v-4.88h1.35v.64c.34-.47.92-.72,1.68-.72Z"/>
          <path class="cls-14" d="M194.65,140.87c0-1.47,1.13-2.51,2.72-2.51,1.02,0,1.83.44,2.18,1.24l-1.1.59c-.26-.46-.65-.67-1.1-.67-.72,0-1.28.5-1.28,1.35s.56,1.35,1.28,1.35c.44,0,.83-.2,1.1-.67l1.1.6c-.35.78-1.16,1.23-2.18,1.23-1.59,0-2.72-1.04-2.72-2.51Z"/>
          <path class="cls-14" d="M205.32,140.52v2.79h-1.41v-2.57c0-.79-.36-1.15-.99-1.15-.68,0-1.17.42-1.17,1.31v2.41h-1.41v-6.73h1.41v2.36c.38-.38.92-.58,1.55-.58,1.15,0,2.02.67,2.02,2.16Z"/>
          <path class="cls-14" d="M208.82,142.49c0-.53.39-.87.88-.87s.88.34.88.87-.39.89-.88.89-.88-.37-.88-.89Z"/>
          <path class="cls-14" d="M211.2,142.49c0-.53.39-.87.88-.87s.88.34.88.87-.39.89-.88.89-.88-.37-.88-.89Z"/>
          <path class="cls-14" d="M213.57,142.49c0-.53.39-.87.88-.87s.88.34.88.87-.39.89-.88.89-.88-.37-.88-.89Z"/>
        </g>
        <path d="M394.15,198.25c0,.14-54.02.26-120.64.26s-120.65-.12-120.65-.26,54.01-.26,120.65-.26,120.64.12,120.64.26Z"/>
        <path d="M218.86,214.63c0,.14-14.23.26-31.79.26s-31.79-.12-31.79-.26,14.23-.26,31.79-.26,31.79.12,31.79.26Z"/>
        <path class="cls-14" d="M355.59,229.83c0,.14-44.85.26-100.15.26s-100.16-.12-100.16-.26,44.84-.26,100.16-.26,100.15.12,100.15.26Z"/>
        <path d="M239.8,313.16c0,.14-9.38.26-20.94.26s-20.94-.12-20.94-.26,9.37-.26,20.94-.26,20.94.12,20.94.26Z"/>
        <path d="M405.32,270.68c0,.12-48.81.21-109.01.21s-109.02-.1-109.02-.21,48.8-.21,109.02-.21,109.01.1,109.01.21Z"/>
        <path d="M378.94,292.2c0,.14-14.23.26-31.79.26s-31.79-.12-31.79-.26,14.23-.26,31.79-.26,31.79.12,31.79.26Z"/>
        <path class="cls-14" d="M390.47,307.77c0,.14-52.66.26-117.59.26s-117.61-.12-117.61-.26,52.64-.26,117.61-.26,117.59.12,117.59.26Z"/>
        <path class="cls-5" d="M445.53,333.37c0-1.71-.08-104.79-.21-267.76l.21.21c-108.19.01-243.89.03-390.82.05h-.03l.26-.26c0,95.57-.02,186.39-.02,267.76l-.24-.24c230.55.14,388.73.24,390.85.24-2.12,0-160.3.1-390.85.24h-.24s0-.24,0-.24c0-81.38-.01-172.19-.02-267.76v-.26h.29c146.93.02,282.63.04,390.82.05h.21v.21c-.13,162.97-.21,266.05-.21,267.76Z"/>
        <path d="M190.1,85c0,.14-13.8.26-30.82.26s-30.82-.12-30.82-.26,13.8-.26,30.82-.26,30.82.12,30.82.26Z"/>
        <path class="cls-4" d="M231.43,177.41c0,.14-17.02.26-38.01.26s-38.02-.12-38.02-.26,17.02-.26,38.02-.26,38.01.12,38.01.26Z"/>
        <path class="cls-4" d="M403.41,248.07c0-.11-55.69-.2-124.36-.2s-124.37.09-124.37.2,55.67.2,124.37.2,124.36-.09,124.36-.2Z"/>
        <g>
          <path class="cls-4" d="M397.06,144.26c-3.5,0-6.35-2.85-6.35-6.35s2.85-6.35,6.35-6.35,6.35,2.85,6.35,6.35-2.85,6.35-6.35,6.35ZM397.06,132.55c-2.95,0-5.35,2.4-5.35,5.35s2.4,5.35,5.35,5.35,5.35-2.4,5.35-5.35-2.4-5.35-5.35-5.35Z"/>
          <path class="cls-4" d="M404.87,147.08c-.13,0-.25-.05-.35-.15l-4.14-4.11c-.2-.19-.2-.51,0-.71.19-.19.51-.2.71,0l4.14,4.11c.2.19.2.51,0,.71-.1.1-.23.15-.35.15Z"/>
        </g>
        <path d="M299.88,213.51c0,.14-16.38.26-36.57.26s-36.58-.12-36.58-.26,16.37-.26,36.58-.26,36.57.12,36.57.26Z"/>
        <path d="M347.15,212.38c0,.14-8.57.26-19.13.26s-19.13-.12-19.13-.26,8.56-.26,19.13-.26,19.13.12,19.13.26Z"/>
        <path d="M299.53,292.58c0,.14-16.38.26-36.57.26s-36.58-.12-36.58-.26,16.37-.26,36.58-.26,36.57.12,36.57.26Z"/>
      </g>
    </g>
    <g id="Plant">
      <g>
        <path class="cls-12" d="M103.22,313.16c-8.11,4.2-14.33,11.44-18.81,19.41-4.47,7.97-7.36,16.71-10.21,25.39l-2.5,44.76c9.44-16.06,17.02-34.94,19.06-53.46-2.09-.19-4.19-.37-6.28-.56,4.21-.64,7.75-3.69,10-7.31s3.41-7.79,4.54-11.9c-2.55.38-5.11.76-7.66,1.14,6-4.01,10.35-10.41,11.87-17.47Z"/>
        <g class="cls-10">
          <path d="M103.22,313.16c-8.11,4.2-14.33,11.44-18.81,19.41-4.47,7.97-7.36,16.71-10.21,25.39l-2.5,44.76c9.44-16.06,17.02-34.94,19.06-53.46-2.09-.19-4.19-.37-6.28-.56,4.21-.64,7.75-3.69,10-7.31s3.41-7.79,4.54-11.9c-2.55.38-5.11.76-7.66,1.14,6-4.01,10.35-10.41,11.87-17.47Z"/>
        </g>
        <path class="cls-12" d="M70.3,413.2s-20.49-24.53-20.25-47.94h8.28s-8.99-5.91-8.28-9.22c.71-3.31.95-15.84.95-15.84l7.57,1.89s-5.68-2.84-6.39-7.33c-.71-4.49,1.66-25.3,1.66-25.3,0,0,9.22,9.7,12.06,19.63,2.84,9.93,10.29,21.52,8.1,51.79-2.19,30.27-3.69,32.33-3.69,32.33Z"/>
        <path class="cls-12" d="M80.69,415.52s22.2-14.79,27.13-33.66l-6.65-1.81s8.52-2.79,8.67-5.6,2.7-12.95,2.7-12.95l-6.5-.13s5.18-1.04,6.74-4.5c1.55-3.46,4.21-20.71,4.21-20.71,0,0-9.54,5.78-13.99,13.14-4.45,7.36-12.98,15.05-17.84,39.87-4.86,24.82-4.47,26.35-4.47,26.35Z"/>
        <path class="cls-5" d="M59.43,330.84s.04.08.08.25c.05.2.11.45.19.75.16.7.38,1.68.66,2.91.57,2.53,1.33,6.2,2.2,10.75,1.75,9.1,3.81,21.73,5.44,35.77,1.62,14.05,2.49,26.82,2.86,36.08.19,4.63.29,8.37.31,10.96,0,1.26.01,2.26.02,2.98,0,.32,0,.57,0,.78,0,.17-.01.26-.02.26,0,0-.02-.09-.03-.26-.01-.2-.03-.46-.04-.77-.03-.72-.07-1.72-.12-2.98-.08-2.59-.24-6.33-.48-10.95-.47-9.24-1.4-22-3.01-36.04-1.63-14.03-3.63-26.66-5.29-35.77-.82-4.55-1.52-8.23-2.04-10.77-.24-1.24-.43-2.22-.57-2.93-.05-.31-.1-.56-.13-.76-.03-.17-.04-.26-.03-.26Z"/>
        <path class="cls-12" d="M67.46,428.22s-18.75-21.28-24.57-34.14l4.4-1.88c-3.19.53-6.45-.84-8.92-2.92-2.47-2.08-4.28-4.81-6.06-7.51l5.79-.98c-5.27-1.48-9.9-5.07-12.65-9.8,6.83,1.12,13.01,4.88,18.11,9.57,4.13,3.8,7.62,8.21,10.97,12.71,1.64,2.2,3.07,4.54,4.26,7.01,3.15,6.51,8.69,20.12,8.68,27.94Z"/>
        <path class="cls-5" d="M108.11,348.54s-.02.08-.08.22c-.08.17-.17.37-.28.62-.28.58-.65,1.37-1.13,2.37-1,2.05-2.42,5.02-4.13,8.71-3.44,7.38-7.98,17.67-12.46,29.25-4.47,11.59-8.04,22.26-10.46,30.03-1.21,3.89-2.16,7.04-2.8,9.22-.32,1.06-.57,1.89-.76,2.51-.08.26-.15.47-.21.65-.05.15-.08.22-.09.22,0,0,0-.08.04-.23.04-.18.1-.4.16-.66.16-.62.38-1.47.66-2.54.58-2.2,1.48-5.37,2.64-9.28,2.33-7.81,5.85-18.51,10.33-30.11,4.49-11.59,9.08-21.88,12.61-29.22,1.76-3.67,3.23-6.62,4.28-8.64.51-.98.92-1.75,1.22-2.32.13-.24.24-.44.33-.6.08-.13.12-.2.13-.2Z"/>
        <path class="cls-5" d="M69.05,437.34s-.14-.54-.3-1.52c-.15-.98-.4-2.4-.75-4.13-.69-3.48-1.9-8.23-3.81-13.29-1.92-5.06-4.15-9.43-5.93-12.49-.89-1.53-1.63-2.76-2.17-3.6-.53-.84-.81-1.32-.78-1.34.03-.02.36.42.95,1.22.59.8,1.38,2,2.32,3.52,1.87,3.03,4.17,7.41,6.1,12.5,1.92,5.09,3.08,9.9,3.68,13.41.3,1.75.5,3.18.59,4.17.1.99.13,1.54.1,1.54Z"/>
        <rect class="cls-4" x="52.75" y="432.33" width="41.04" height="8.37"/>
        <polygon class="cls-4" points="56.66 440.71 61.1 468.86 85.9 468.86 90.04 440.71 56.66 440.71"/>
        <path class="cls-5" d="M91.27,440.71c0,.14-7.76.26-17.34.26s-17.34-.12-17.34-.26,7.76-.26,17.34-.26,17.34.12,17.34.26Z"/>
      </g>
      <g>
        <path class="cls-12" d="M176.12,311.27c-8.11,4.2-14.33,11.44-18.81,19.41-4.47,7.97-7.36,16.71-10.21,25.39l-2.5,44.76c9.44-16.06,17.02-34.94,19.06-53.46-2.09-.19-4.19-.37-6.28-.56,4.21-.64,7.75-3.69,10-7.31s3.41-7.79,4.54-11.9c-2.55.38-5.11.76-7.66,1.14,6-4.01,10.35-10.41,11.87-17.47Z"/>
        <g class="cls-10">
          <path d="M176.12,311.27c-8.11,4.2-14.33,11.44-18.81,19.41-4.47,7.97-7.36,16.71-10.21,25.39l-2.5,44.76c9.44-16.06,17.02-34.94,19.06-53.46-2.09-.19-4.19-.37-6.28-.56,4.21-.64,7.75-3.69,10-7.31s3.41-7.79,4.54-11.9c-2.55.38-5.11.76-7.66,1.14,6-4.01,10.35-10.41,11.87-17.47Z"/>
        </g>
        <path class="cls-12" d="M143.2,411.32s-20.49-24.53-20.25-47.94h8.28s-8.99-5.91-8.28-9.22c.71-3.31.95-15.84.95-15.84l7.57,1.89s-5.68-2.84-6.39-7.33c-.71-4.49,1.66-25.3,1.66-25.3,0,0,9.22,9.7,12.06,19.63,2.84,9.93,10.29,21.52,8.1,51.79-2.19,30.27-3.69,32.33-3.69,32.33Z"/>
        <path class="cls-12" d="M153.59,413.63s22.2-14.79,27.13-33.66l-6.65-1.81s8.52-2.79,8.67-5.6,2.7-12.95,2.7-12.95l-6.5-.13s5.18-1.04,6.74-4.5c1.55-3.46,4.21-20.71,4.21-20.71,0,0-9.54,5.78-13.99,13.14-4.45,7.36-12.98,15.05-17.84,39.87-4.86,24.82-4.47,26.35-4.47,26.35Z"/>
        <path class="cls-5" d="M132.33,328.95s.04.08.08.25c.05.2.11.45.19.75.16.7.38,1.68.66,2.91.57,2.53,1.33,6.2,2.2,10.75,1.75,9.1,3.81,21.73,5.44,35.77,1.62,14.05,2.49,26.82,2.86,36.08.19,4.63.29,8.37.31,10.96,0,1.26.01,2.26.02,2.98,0,.32,0,.57,0,.78,0,.17-.01.26-.02.26,0,0-.02-.09-.03-.26-.01-.2-.03-.46-.04-.77-.03-.72-.07-1.72-.12-2.98-.08-2.59-.24-6.33-.48-10.95-.47-9.24-1.4-22-3.01-36.04-1.63-14.03-3.63-26.66-5.29-35.77-.82-4.55-1.52-8.23-2.04-10.77-.24-1.24-.43-2.22-.57-2.93-.05-.31-.1-.56-.13-.76-.03-.17-.04-.26-.03-.26Z"/>
        <path class="cls-12" d="M140.36,426.34s-18.75-21.28-24.57-34.14l4.4-1.88c-3.19.53-6.45-.84-8.92-2.92-2.47-2.08-4.28-4.81-6.06-7.51l5.79-.98c-5.27-1.48-9.9-5.07-12.65-9.8,6.83,1.12,13.01,4.88,18.11,9.57,4.13,3.8,7.62,8.21,10.97,12.71,1.64,2.2,3.07,4.54,4.26,7.01,3.15,6.51,8.69,20.12,8.68,27.94Z"/>
        <path class="cls-5" d="M181.02,346.65s-.02.08-.08.22c-.08.17-.17.37-.28.62-.28.58-.65,1.37-1.13,2.37-1,2.05-2.42,5.02-4.13,8.71-3.44,7.38-7.98,17.67-12.46,29.25-4.47,11.59-8.04,22.26-10.46,30.03-1.21,3.89-2.16,7.04-2.8,9.22-.32,1.06-.57,1.89-.76,2.51-.08.26-.15.47-.21.65-.05.15-.08.22-.09.22,0,0,0-.08.04-.23.04-.18.1-.4.16-.66.16-.62.38-1.47.66-2.54.58-2.2,1.48-5.37,2.64-9.28,2.33-7.81,5.85-18.51,10.33-30.11,4.49-11.59,9.08-21.88,12.61-29.22,1.76-3.67,3.23-6.62,4.28-8.64.51-.98.92-1.75,1.22-2.32.13-.24.24-.44.33-.6.08-.13.12-.2.13-.2Z"/>
        <path class="cls-5" d="M141.95,435.45s-.14-.54-.3-1.52c-.15-.98-.4-2.4-.75-4.13-.69-3.48-1.9-8.23-3.81-13.29-1.92-5.06-4.15-9.43-5.93-12.49-.89-1.53-1.63-2.76-2.17-3.6-.53-.84-.81-1.32-.78-1.34.03-.02.36.42.95,1.22.59.8,1.38,2,2.32,3.52,1.87,3.03,4.17,7.41,6.1,12.5,1.92,5.09,3.08,9.9,3.68,13.41.3,1.75.5,3.18.59,4.17.1.99.13,1.54.1,1.54Z"/>
        <rect class="cls-4" x="125.66" y="430.45" width="41.04" height="8.37"/>
        <polygon class="cls-4" points="129.57 438.82 134 466.98 158.8 466.98 162.94 438.82 129.57 438.82"/>
        <path class="cls-5" d="M164.18,438.82c0,.14-7.76.26-17.34.26s-17.34-.12-17.34-.26,7.76-.26,17.34-.26,17.34.12,17.34.26Z"/>
      </g>
    </g>
    <g id="Character">
      <g>
        <g>
          <path class="cls-12" d="M270.02,448.09v20.77l41.88-.2c-.3-4.21-23.29-12.61-23.29-12.61l.46-7.95h-19.05Z"/>
          <g class="cls-9">
            <path class="cls-7" d="M276.79,454.16c-.8.25-1.35,1.21-1.15,2.07.2.86,1.13,1.45,1.93,1.22.81-.23,1.49-1.37,1.2-2.2-.29-.83-1.41-1.47-2.14-1.04"/>
          </g>
          <path class="cls-5" d="M270.02,468.85v-3.32l39.99.47s2.08,1.25,1.9,2.64l-41.88.2Z"/>
          <path class="cls-5" d="M288.61,456.44c0,.22-1.02.33-2.01,1.04-1.01.68-1.51,1.62-1.7,1.54-.19-.04.1-1.33,1.31-2.17,1.21-.85,2.44-.61,2.4-.41Z"/>
          <path class="cls-5" d="M294.1,458.36c.05.21-.83.59-1.5,1.51-.7.9-.86,1.89-1.07,1.88-.19.04-.35-1.22.51-2.35.85-1.14,2.05-1.24,2.06-1.04Z"/>
          <path class="cls-5" d="M296.57,463.65c-.18.05-.48-1.02.02-2.21.5-1.19,1.45-1.67,1.54-1.49.12.18-.49.82-.89,1.8-.42.97-.47,1.88-.67,1.91Z"/>
          <path class="cls-5" d="M288.2,450.53c-.08.2-1.02-.09-2.17.01-1.15.08-2.04.5-2.15.31-.12-.15.74-.97,2.1-1.06,1.35-.11,2.32.56,2.22.73Z"/>
        </g>
        <path class="cls-5" d="M288.44,457.37s.14-.44.09-1.27c-.06-.81-.31-2.03-1.11-3.27-.4-.61-.93-1.22-1.64-1.72-.34-.24-.87-.5-1.41-.25-.51.24-.8.81-.82,1.37.05,2.14,1.59,4.11,3.68,4.86,2.15.75,4.41-.18,5.66-1.68.3-.38.6-.77.75-1.28.07-.25.11-.54,0-.83-.09-.28-.32-.51-.57-.6-.51-.17-.93-.02-1.31.13-.36.17-.68.36-.97.56-1.19.79-1.95,1.71-2.39,2.37-.45.67-.61,1.1-.58,1.11.09.1.87-1.64,3.19-3.1.56-.32,1.29-.78,1.89-.58.26.11.36.41.24.78-.11.36-.38.72-.66,1.06-1.13,1.33-3.18,2.14-5.06,1.47-1.86-.63-3.26-2.51-3.32-4.22,0-.4.21-.76.49-.9.27-.14.62-.02.93.19.64.43,1.16.99,1.56,1.54.79,1.13,1.09,2.27,1.22,3.04.12.79.09,1.24.14,1.24Z"/>
        <polygon class="cls-12" points="254.71 451.09 255.42 456.44 254.95 468.49 239.25 468.87 238.69 456.44 240.47 449.05 254.71 451.09"/>
        <path class="cls-5" d="M247.19,467.58c-.1,0,.13-3.68.5-8.23.37-4.55.75-8.25.85-8.25s-.13,3.68-.5,8.24c-.37,4.55-.75,8.25-.85,8.25Z"/>
        <polygon class="cls-5" points="255.01 466.48 239.15 466.67 239.15 468.87 255.02 468.85 255.01 466.48"/>
        <path class="cls-5" d="M239.19,459.55s.11-.25.4-.64c.29-.39.75-.92,1.4-1.5.65-.58,1.49-1.21,2.54-1.7,1.04-.5,2.31-.86,3.66-.85,2.72,0,5,1.33,6.12,2.66.58.65.94,1.27,1.15,1.71.2.44.28.7.25.71-.09.05-.46-.98-1.64-2.19-1.14-1.21-3.31-2.41-5.89-2.41-2.57-.01-4.69,1.28-5.97,2.33-1.31,1.07-1.95,1.93-2.02,1.88Z"/>
        <g>
          <path class="cls-1" d="M247.12,114.74l-.17,54.29,23.29,1.11.67-13.2s8.27,1.64,10.41-6.04c1.36-4.91,1.02-42.83,1.02-42.83l-35.23,6.68Z"/>
          <path class="cls-5" d="M285.41,111.88c-3.67,1.05-4.47,7.05-4.47,7.05l-5.75,12.71c-2.93-2.29-6.87-2.16-7.61,2.99-.54,3.72,4.09,4.47,4.09,4.47-2.69,4.58-4.52,8.29-8.44,12.65-4.25,4.72-6.62,5.2-11.23,5.27h-5.08s-2.49-8.07-7.09-28.24c-5.11-22.38,21.36-19.5,26.27-25.21,7.99-9.3,30.87,5,19.31,8.31Z"/>
          <path class="cls-5" d="M291.87,107.02c-.38-2.38-2.66-4.38-5.07-4.22.86-1.21.45-3.03-.66-4.02-1.11-.99-2.72-1.25-4.19-1.02-1.47.22-2.84.87-4.18,1.5-.24-1.14-1.68-3.02-2.7-3.57-2.05-1.11-3.33-1.11-4.49-1.11-7.15,0-10.91,4.9-14.75,9.88-.66.86-1.31,1.81-2.32,2.2-.68.26-1.43.23-2.16.24-5.44.11-10.71,3.38-13.21,8.22-2.5,4.84-4.37,16.03,2.1,22.96l3.9,8.71,37.33-29.58c.27.14,2.61,1.28,4.41.33,4.47-2.35,2.6-6.28,2.6-6.28.36-.19,3.77-1.86,3.39-4.24Z"/>
          <path class="cls-12" d="M257.32,136.11c.15-.02.38,1.87-.13,4.12-.5,2.26-1.52,3.86-1.65,3.78-.16-.08.59-1.74,1.07-3.91.5-2.17.53-3.99.71-3.99Z"/>
          <path class="cls-12" d="M260.14,133.44c.16,0,.19,1.8-.22,3.97-.4,2.17-1.08,3.83-1.23,3.78-.16-.05.26-1.76.65-3.89.4-2.12.63-3.87.8-3.86Z"/>
          <path class="cls-12" d="M268.2,124.48c.06.08-.6.56-1.44,1.54-.84.97-1.81,2.49-2.51,4.33-.7,1.84-1.09,3.61-1.39,4.88-.29,1.28-.49,2.07-.58,2.05-.08-.01-.02-.83.17-2.13.2-1.3.52-3.11,1.25-5.02.73-1.91,1.8-3.47,2.75-4.4.95-.95,1.71-1.31,1.75-1.26Z"/>
          <path class="cls-12" d="M271.46,118.39c.07-.02.31.53.45,1.47.15.94.15,2.28-.2,3.71-.36,1.42-1,2.61-1.57,3.36-.57.76-1.04,1.13-1.09,1.08-.15-.11,1.43-1.86,2.09-4.59.7-2.71.14-5,.32-5.03Z"/>
          <path class="cls-12" d="M243.67,131.94c-.08.14-.79-.1-1.59-.55-.8-.45-1.38-.92-1.3-1.07.08-.14.79.11,1.59.55.8.45,1.38.92,1.3,1.07Z"/>
          <path class="cls-12" d="M254.92,126.15c.15.02.06,1.17-.67,2.36-.72,1.19-1.69,1.81-1.78,1.69-.11-.13.62-.9,1.28-1.99.67-1.09,1-2.09,1.17-2.06Z"/>
          <path class="cls-12" d="M258.38,124.29c.15.03-.09,1.41-1.04,2.82-.93,1.42-2.11,2.18-2.2,2.05-.11-.13.83-1.05,1.71-2.38.89-1.32,1.36-2.55,1.53-2.5Z"/>
          <path class="cls-12" d="M275.58,101.55s-.44-.33-1.28-.81c-.84-.46-2.18-.97-3.9-1.01-1.7-.05-3.8.35-5.73,1.54-1.93,1.18-3.64,3.11-4.88,5.43-.9,1.69-1.53,3.44-1.98,5.09l-.09.34-.31-.16c-1.73-.91-3.56-1.31-5.2-1.33-1.64-.05-3.09.26-4.23.64-2.3.79-3.39,1.82-3.45,1.73-.02-.02.24-.28.78-.69.54-.4,1.39-.93,2.55-1.37,1.16-.44,2.65-.8,4.36-.79,1.7-.01,3.62.37,5.46,1.31l-.41.18c.44-1.69,1.07-3.49,2.01-5.23,1.28-2.39,3.07-4.4,5.11-5.62,2.05-1.22,4.25-1.6,6.02-1.49,1.79.1,3.17.69,4,1.23.41.29.72.52.89.71.19.18.28.28.26.3Z"/>
          <path class="cls-12" d="M287.83,104.51s.65-.17,1.34.61c.31.38.6.97.54,1.7-.07.73-.58,1.48-1.35,1.93-.77.47-1.82.63-2.83.39-1.02-.22-2-.76-2.92-1.42-.93-.65-1.82-1.4-2.85-1.96-1.04-.56-2.21-.97-3.44-1.21-2.48-.46-4.94-.18-7.02.48-2.09.67-3.83,1.68-5.19,2.64-2.72,1.96-4.06,3.59-4.14,3.51-.03-.02.28-.45.92-1.15.64-.69,1.62-1.67,2.98-2.7,1.36-1.02,3.11-2.1,5.27-2.82,2.15-.72,4.7-1.03,7.3-.54,1.29.25,2.52.68,3.61,1.28,1.1.6,2,1.38,2.89,2.02.88.65,1.79,1.16,2.71,1.38.92.23,1.82.12,2.51-.27.7-.37,1.15-1.01,1.23-1.61.09-.61-.13-1.16-.39-1.52-.55-.74-1.19-.68-1.16-.75Z"/>
        </g>
        <path class="cls-1" d="M396.33,146.16c-.88-.78-12.74,4.2-12.74,4.2,0,0-8.85,6.94-12.49,11.04l-2.25,1.87-33.66,26.17-41.4-17.22-8.98,23.1s46.48,18.5,53.56,15.33c7.7-3.44,36.35-33.43,36.41-33.53,0,0,0,0,0,0l4.14-3.99s2.19-.04,3.85-.14c1.66-.1,6.52-3.33,6.52-3.33,0,0,.7-1.26.94-2.83.24-1.57-.9-2.06-.9-2.06,0,0,.27-1.02.08-2.34-.19-1.32-1.95-2.85-1.95-2.85,0,0,.7-.57,1.11-2.09.41-1.52-1.56-2.96-1.56-2.96,0,0,6.88-4.68,8.55-5.5,1.67-.82,1.65-2.1.77-2.88Z"/>
        <g>
          <path class="cls-5" d="M299.88,382.69c.14-1.52.21-2.69.21-3.42l4.67-74.63s-3.93-21.79-5.79-27.58l-16.71-6.47-22.26,8.67c-.15-1.8-.24-2.9-.24-2.9l-32.79,11.33s-.85,22.37,0,29.18c.27,2.19,1.13,7.84,2.17,14.5h0s1.06,14.47,1.27,15.28c.79,2.95.98,10.18.98,17.42,0,9.2.5,20.15,1.07,25.36.57,5.21.85,62.44.85,62.44h24.2l3.11-91.17c.52-9.77,1.3-24.71,1.81-35.52l5.68,33.66c0,1.23,3.46,20.48,3.46,20.48,0,0-1.27,9.03-1.48,18.26-.4,16.97-2.39,54.28-2.39,54.28h23.69s7.11-53.89,8.5-69.18h0Z"/>
          <path class="cls-12" d="M303.96,300.17c-.03.05-.89-.34-2.18-1.16-1.29-.82-3-2.08-4.68-3.71-1.68-1.63-3-3.29-3.86-4.56-.86-1.26-1.29-2.11-1.23-2.14.07-.04.6.73,1.53,1.93.92,1.2,2.27,2.8,3.93,4.4,1.66,1.6,3.3,2.89,4.53,3.78,1.23.89,2.02,1.39,1.98,1.46Z"/>
          <path class="cls-12" d="M261.72,313.73s-.19-.25-.46-.74c-.27-.49-.63-1.23-1.02-2.16-.79-1.85-1.67-4.51-2.2-7.55-.53-3.04-.6-5.84-.48-7.85.06-1.01.14-1.82.23-2.37.09-.56.15-.86.18-.86.08,0-.03,1.24-.05,3.24-.02,1.99.1,4.75.62,7.75.53,2.99,1.34,5.63,2.04,7.5.69,1.87,1.22,2.99,1.15,3.03Z"/>
          <path class="cls-12" d="M265.24,341.83s-.15-.46-.31-1.3c-.17-.95-.39-2.15-.66-3.57-.53-3.13-1.22-7.25-1.99-11.81-1.34-8.37-2.25-14.07-2.67-16.72.11-.04.58,1.83,1.14,4.83.58,3.01,1.3,7.19,2.06,11.8.75,4.62,1.4,8.8,1.83,11.84.19,1.44.36,2.64.49,3.6.1.85.14,1.33.11,1.33Z"/>
        </g>
        <g>
          <path class="cls-1" d="M208.13,217.35s-3.2,22.49-3.79,30.38c-.36,4.74,4.46,11.04,8.14,11.51,3.74.47,16.08,1.2,16.08,1.2l1.03-14.11-.32-2.81-3.85-.73,1.16-22.37-18.44-3.07Z"/>
          <path class="cls-2" d="M226.07,221.17s.09.43.14,1.22c.06.79.11,1.93.14,3.34.06,2.83,0,6.73-.24,11.04-.24,4.31-.58,8.19-.86,11-.14,1.4-.27,2.54-.37,3.32-.1.78-.17,1.22-.21,1.21-.04,0-.03-.44,0-1.23.05-.9.12-2.02.2-3.34.19-2.93.43-6.76.71-11,.24-4.3.37-8.19.4-11.01.01-1.32.02-2.44.03-3.34,0-.79.03-1.23.07-1.23Z"/>
        </g>
        <g class="cls-10">
          <path d="M227.29,288.11c6.3,2.34,13.2,2.54,19.9,1.95s13.31-1.92,20-2.56c10.12-.96,20.38-.3,30.29,1.96.7.16,1.43.33,2.14.2.71-.13,1.41-.63,1.52-1.34.17-1.12-1.05-1.9-2.09-2.34-22.77-9.58-49.61-8.98-71.93,1.61"/>
        </g>
        <g>
          <path class="cls-6" d="M323.75,182.44l-35.51-17.68c-9.33-1.09-16.88-.74-16.88-.74h-23.51s-28.49,8.4-33.19,16.15l-12.21,36.6,24.14,3.65h0l3.01,26.3s-2.99,30.45-2.99,34.87.38,6.11.38,6.11c0,0,48.29-7.34,60.18-3.47,11.89,3.87,15.11,3.47,15.11,3.47,0,0-.99-12.64-1.88-19.97l-2.76-36.69-2.04-28.02,22.35,6.84,5.8-27.42Z"/>
          <path class="cls-5" d="M226.36,220.7c-.09.01-.32-1.51-.86-3.95-.54-2.43-1.43-5.77-2.79-9.34-1.37-3.57-2.93-6.69-4.14-8.92-.57-1.03-1.06-1.91-1.46-2.62-.35-.62-.53-.97-.49-.99.03-.02.27.3.68.89.41.59.97,1.46,1.62,2.56,1.3,2.19,2.94,5.31,4.32,8.91,1.38,3.6,2.22,6.98,2.66,9.44.22,1.23.36,2.23.43,2.93.07.69.09,1.08.05,1.08Z"/>
          <path class="cls-5" d="M271.91,231.09s-.03.17-.12.48c-.12.37-.27.81-.45,1.35-.2.59-.45,1.3-.78,2.12-.33.82-.68,1.76-1.14,2.77-.87,2.04-2.03,4.42-3.42,6.99-1.42,2.56-3.1,5.32-5.03,8.1-1.95,2.77-3.97,5.29-5.89,7.5-1.94,2.2-3.78,4.1-5.4,5.61-.79.78-1.55,1.43-2.21,2.02-.65.59-1.24,1.07-1.72,1.46-.45.36-.81.65-1.12.89-.26.2-.4.3-.41.28-.01-.01.11-.14.34-.36.28-.26.63-.58,1.05-.96.46-.41,1.03-.91,1.66-1.52.63-.61,1.38-1.27,2.15-2.06,1.58-1.54,3.38-3.46,5.29-5.66,1.89-2.22,3.89-4.74,5.83-7.49,1.92-2.76,3.6-5.5,5.04-8.04,1.41-2.55,2.6-4.9,3.5-6.91.48-.99.85-1.92,1.2-2.73.36-.8.64-1.5.86-2.08.22-.53.4-.96.54-1.32.13-.3.21-.45.22-.45Z"/>
          <path class="cls-5" d="M288.32,167.18c.1.05-1.33,1.47-1.87,4.46-.28,1.47-.28,3.28.03,5.25.3,1.97.9,4.1,1.5,6.34,1.23,4.48,2.52,8.47,3.51,11.35.47,1.36.86,2.5,1.18,3.41.28.8.42,1.26.38,1.27-.03.01-.24-.41-.58-1.19-.34-.78-.8-1.93-1.34-3.35-1.08-2.85-2.44-6.85-3.67-11.34-.6-2.24-1.19-4.39-1.47-6.41-.3-2.01-.25-3.88.08-5.4.32-1.52.9-2.66,1.37-3.37.49-.71.85-1.03.87-1.01Z"/>
        </g>
      </g>
    </g>
    <g id="Background_Complete">
      <path class="cls-11" d="M119.33,140.27c0-9.92-8.96-17.75-19.23-15.82-6.46,1.21-11.61,6.49-12.74,12.96-.71,4.05.13,7.85,1.97,11h0l.05.06c.62,1.04,1.39,1.79,2.17,2.88l9.35,12.39c1.16,1.54,3.48,1.54,4.64,0l9.2-12.19s1.72-2.05,2.34-3.1l.03-.04h0c1.4-2.39,2.22-5.17,2.22-8.14ZM103.22,147.28c-3.92,0-7.09-3.17-7.09-7.09s3.17-7.09,7.09-7.09,7.09,3.17,7.09,7.09-3.17,7.09-7.09,7.09Z"/>
    </g>
  </g>
</svg>